<mxfile host="65bd71144e">
    <diagram id="wQ-AI0eEz0eshq9HkSy8" name="Page-1">
        <mxGraphModel dx="1305" dy="800" grid="0" gridSize="10" guides="1" tooltips="1" connect="1" arrows="1" fold="1" page="1" pageScale="1" pageWidth="2339" pageHeight="3300" math="0" shadow="0">
            <root>
                <mxCell id="0"/>
                <mxCell id="1" parent="0"/>
                <mxCell id="94" value="" style="endArrow=classic;html=1;strokeWidth=2;" edge="1" parent="1">
                    <mxGeometry width="50" height="50" relative="1" as="geometry">
                        <mxPoint x="467" y="343.5" as="sourcePoint"/>
                        <mxPoint x="680" y="344" as="targetPoint"/>
                    </mxGeometry>
                </mxCell>
                <mxCell id="86" value="" style="rounded=0;whiteSpace=wrap;html=1;" vertex="1" parent="1">
                    <mxGeometry x="691" y="173" width="936" height="363" as="geometry"/>
                </mxCell>
                <mxCell id="81" value="" style="endArrow=classic;html=1;strokeWidth=2;" edge="1" parent="1">
                    <mxGeometry width="50" height="50" relative="1" as="geometry">
                        <mxPoint x="1010" y="438.5" as="sourcePoint"/>
                        <mxPoint x="1095" y="438.5" as="targetPoint"/>
                    </mxGeometry>
                </mxCell>
                <mxCell id="80" value="" style="endArrow=classic;html=1;strokeWidth=2;" edge="1" parent="1">
                    <mxGeometry width="50" height="50" relative="1" as="geometry">
                        <mxPoint x="874" y="265.5" as="sourcePoint"/>
                        <mxPoint x="1041" y="266" as="targetPoint"/>
                    </mxGeometry>
                </mxCell>
                <mxCell id="56" value="" style="whiteSpace=wrap;html=1;" vertex="1" parent="1">
                    <mxGeometry x="701" y="405" width="165" height="64" as="geometry"/>
                </mxCell>
                <mxCell id="55" value="" style="whiteSpace=wrap;html=1;" vertex="1" parent="1">
                    <mxGeometry x="701" y="212" width="168" height="116" as="geometry"/>
                </mxCell>
                <mxCell id="2" value="" style="sketch=0;html=1;dashed=0;whitespace=wrap;fillColor=#2875E2;strokeColor=#ffffff;points=[[0.005,0.63,0],[0.1,0.2,0],[0.9,0.2,0],[0.5,0,0],[0.995,0.63,0],[0.72,0.99,0],[0.5,1,0],[0.28,0.99,0]];shape=mxgraph.kubernetes.icon;prIcon=pod" vertex="1" parent="1">
                    <mxGeometry x="704" y="216" width="50" height="48" as="geometry"/>
                </mxCell>
                <mxCell id="3" value="" style="sketch=0;html=1;dashed=0;whitespace=wrap;fillColor=#2875E2;strokeColor=#ffffff;points=[[0.005,0.63,0],[0.1,0.2,0],[0.9,0.2,0],[0.5,0,0],[0.995,0.63,0],[0.72,0.99,0],[0.5,1,0],[0.28,0.99,0]];shape=mxgraph.kubernetes.icon;prIcon=pod" vertex="1" parent="1">
                    <mxGeometry x="759" y="216" width="50" height="48" as="geometry"/>
                </mxCell>
                <mxCell id="4" value="" style="sketch=0;html=1;dashed=0;whitespace=wrap;fillColor=#2875E2;strokeColor=#ffffff;points=[[0.005,0.63,0],[0.1,0.2,0],[0.9,0.2,0],[0.5,0,0],[0.995,0.63,0],[0.72,0.99,0],[0.5,1,0],[0.28,0.99,0]];shape=mxgraph.kubernetes.icon;prIcon=pod" vertex="1" parent="1">
                    <mxGeometry x="704" y="273" width="50" height="48" as="geometry"/>
                </mxCell>
                <mxCell id="5" value="" style="sketch=0;html=1;dashed=0;whitespace=wrap;fillColor=#2875E2;strokeColor=#ffffff;points=[[0.005,0.63,0],[0.1,0.2,0],[0.9,0.2,0],[0.5,0,0],[0.995,0.63,0],[0.72,0.99,0],[0.5,1,0],[0.28,0.99,0]];shape=mxgraph.kubernetes.icon;prIcon=pod" vertex="1" parent="1">
                    <mxGeometry x="704" y="412" width="50" height="48" as="geometry"/>
                </mxCell>
                <mxCell id="6" value="" style="sketch=0;html=1;dashed=0;whitespace=wrap;fillColor=#2875E2;strokeColor=#ffffff;points=[[0.005,0.63,0],[0.1,0.2,0],[0.9,0.2,0],[0.5,0,0],[0.995,0.63,0],[0.72,0.99,0],[0.5,1,0],[0.28,0.99,0]];shape=mxgraph.kubernetes.icon;prIcon=pod" vertex="1" parent="1">
                    <mxGeometry x="759" y="273" width="50" height="48" as="geometry"/>
                </mxCell>
                <mxCell id="7" value="" style="sketch=0;html=1;dashed=0;whitespace=wrap;fillColor=#2875E2;strokeColor=#ffffff;points=[[0.005,0.63,0],[0.1,0.2,0],[0.9,0.2,0],[0.5,0,0],[0.995,0.63,0],[0.72,0.99,0],[0.5,1,0],[0.28,0.99,0]];shape=mxgraph.kubernetes.icon;prIcon=pod" vertex="1" parent="1">
                    <mxGeometry x="754" y="412" width="50" height="48" as="geometry"/>
                </mxCell>
                <mxCell id="8" value="" style="sketch=0;html=1;dashed=0;whitespace=wrap;fillColor=#2875E2;strokeColor=#ffffff;points=[[0.005,0.63,0],[0.1,0.2,0],[0.9,0.2,0],[0.5,0,0],[0.995,0.63,0],[0.72,0.99,0],[0.5,1,0],[0.28,0.99,0]];shape=mxgraph.kubernetes.icon;prIcon=pod" vertex="1" parent="1">
                    <mxGeometry x="807" y="412" width="50" height="48" as="geometry"/>
                </mxCell>
                <mxCell id="12" value="" style="sketch=0;html=1;dashed=0;whitespace=wrap;fillColor=#2875E2;strokeColor=#ffffff;points=[[0.005,0.63,0],[0.1,0.2,0],[0.9,0.2,0],[0.5,0,0],[0.995,0.63,0],[0.72,0.99,0],[0.5,1,0],[0.28,0.99,0]];shape=mxgraph.kubernetes.icon;prIcon=master" vertex="1" parent="1">
                    <mxGeometry x="921.5" y="226" width="70" height="70" as="geometry"/>
                </mxCell>
                <mxCell id="15" value="&lt;b&gt;Kube Scheduler&lt;/b&gt;" style="text;html=1;align=center;verticalAlign=middle;resizable=0;points=[];autosize=1;strokeColor=none;fillColor=none;" vertex="1" parent="1">
                    <mxGeometry x="906" y="296" width="101" height="18" as="geometry"/>
                </mxCell>
                <mxCell id="16" value="Karpenter Reallocater" style="shape=image;verticalLabelPosition=bottom;labelBackgroundColor=#ffffff;verticalAlign=top;imageAspect=0;image=data:image/png,iVBORw0KGgoAAAANSUhEUgAAAMcAAADGCAIAAADpOwM0AAAAAXNSR0IArs4c6QAAAARnQU1BAACxjwv8YQUAAAAJcEhZcwAADsMAAA7DAcdvqGQAAAASdEVYdFNvZnR3YXJlAEdyZWVuc2hvdF5VCAUAABn3SURBVHhe7Z2HV9vYEsbz32dfIKGY3mvoHQKh11AChIQSQgfbsi032bItucj7PmEvywowknwty+Z+Z96e3XewdDX6ae6MdMu7v6moSItSRUVelCoq8qJUUZEXpYqKvChVVORFqaIiL7NQlUzKJkl/R6NJPpQIBBN+Lu7zxz2eGOuOOdmoI0+GU6MBaAYagyahYWheNJZEU1NtpnqqvFGVYigWS+JW2Rjx7CJycMh/2wnMr/inZn3j097RKe/QhGdgzN034u4ZZj/nyXBqNADNQGPQJDQMzZtf4dBUNPjsMoLG4xJwIbgcqpSMpkqSkrgBQT5xaxX3DvjZRf/AuLujz9XQ7rA02Ess1r8qrH+V/2MV1v/BHv4zT4YGoBmKhpVarGhwY7ujo981OO6eW/YDMhDG84l7wt50EDOIKjhZjEp4pk/Pwysb3OC4p7nLibvyodL6vuzu4W7JDBWOPTQbl4DnoaqJae12IaStbXJ/LsK42GhUeptdZM6pwoPLBeJXN5H1La5/zF3bwnyqseOWvC9AjDLbPV7yv5TV2nGZuNj1rcDVjYDLhxPS7ngbyhVVeEZFUXK4ors/gqNTnrpWx6caGyJTkZH0rKX6SlwsLrm+1TH6xYO+Hq5AtE57p9hFnirwFI5It1YBHUHXAFteJ3dz8PJb4Elh8iXf4wUndA+yiNZ3NiESKf5ukTBV4OnyRkAd19br/Fhlkz37xNdv0FJO+Fhta+91Laxy6BbhqLTLilHEqEokkqwntrzOIQ0vrbK9wcikxuAWOKely4mSxe2JwWlp9xWXCFCFeM6HEke/Qyiwy2opT68bXFReax+acB+fhkOhRPF1iNlSFYsnGUd0foVD1VOC/OmJB6k9awAL+RaKGHSISOTj8aIiKyuqIoJ0dBrqGWZR7NAQpcPgNET33hH2+E9YEIon09JJFYI2F0hs7QYa2h0KT1HTbJXWxnbHzl4wECyS3lAPVfFE0u4QZxf9VY2M0kHU9Fp1EzO37Gec0SJI4TVThUTq7DLSO+JGr6fwC7UsrazG1jfi/nMeiRb4u3htVMViydPzcHufCy6giRRxS7m0tcd1cMQLYgGnWRqownUe/w639cpIGWmpDyB5NEV7DLD6Ngdy1lA4kXZ9oUktVeFw4vt+sKnD+eGJC8ha6ka+L7uD4T8/VtvKa+0V9XZLA1PVxCD5qDHEcCJLI1NZb8fZU18wU00yjDNLg31pjUP+nr4BBSVVVAGpje0AfK24coL2cLfgzZZuZ/cgOzjumZr1La1zOPX2XmDvgEe/cHjMH54YYb+O+f2f/M5+8NtOYOUbN7PgH5709Ayz7b0u+Ut5tfwmJaeE4ch4ohZWuEKMWK9TFYlIm98DiBO582CJRa6AugfY6Xkf7uXNneD2xOBNpHHxeBI1UcokyVB7OC9qXjRDECSfP26ziyd/wgB9YsbbNcCi2QhjisshZXA4giWcX3Cvsl6hCrnU9x/B2pacRKnUx3zcm/kV7ugkhKI6IuBuyi/DzCw0D6jxoQTjiB4eh2YX/R39rrJaeWiG4gKJGHKsg0O+sEbRZKIqGpVwPbl4z1laZWvqdE7O+vZ/8TJMBTs4BM1GTLU7xL2D4NgXLzpHXBoukGxcb+5yHp6ECuh1w4tUIeyfnodbupyKK8zSkCs0dzrnlvzXt0KQT+As6fMVuNBFcoH4+VVkdskPCIi/zGvrcZ1dRBAj0+czt56nCo+g3RFFckoqquPZLbHYUEKCp6tbAc93Uc5IwUXh0m6tIooMeUSQhdjnUdyIvlE34nr6TObW81RxgcTXRb/8zfjJ5emxcjkZRwdxdhlBZ1f0M5zwTCJBRNya/OqtaSZT5eAgZTU2PJMF8a7hGapQcWyh6Gsk4w74onuQRdrh5+JyKv5mhIvlgvH9n8HOARf6fYVb9Bkezp29oPlfuyupQs+NyhkZevZRClACzbllPzrTtzbJ5EG48Dub+GXOV9lA5ilt7HCcniGBMLU/lVR5/bHhSY/iSnQY8gBc//auPLojfei3KnSIiNMb24HaFjLV9OiUBwdMH92U+g9VqF13f/CVDfJ8vWwM1TUy/d9nRTUSLUuFI9KPXzzqX4WvdJilkdn/yZs5/P+HKhcr132Ka9BqiFK9I+6bO6HIRs1mLzEqofNCllliUTpNm6EeHHGznlj6uObTv1QhB1zb5Mpr7VlmVJ+HWGQSdCmLZ4V8yGYX+8fcqWlt+gw3qLzOji5VNGvanqYKff+tTWzryWqUC7LRjn7XrVXA0aheEpzjdEVHpjzZgAVr73NZ7aI5XZ2mKiJICyt++VP8k9arNCDV0u28uI5QpF5VGqxJj+43DrhNn2psS2ucOTNXmSpcJNKg1m5nNqVvQ7vj8CREcymVgs9tjNwVllj0glVubet1mrNnkKm6D1Qcnht9gQqXl/6uXsiDYo1XIpE8v4wgwCv8qdLg9nS4Mp/b34H061uhtcelO1BVNcpjgIBm+pBUqoWq8PuPYHUTo/t5but1oZ8xW7R6h455cU0OVIoWqzQ8Ll8X/IGAqV/KmVlBPrG4KpfeCseqNNy4lQ3That3jCPaNcDqDlS9I6zdYdJKpFDEemKD4zq/Z+DGfR5iHSYby/Duxy++sl7ng1LbQjN0AkKCdXwaQm6qcK9Kq2yw/zwKmerL/bupWZ+ilSqt1GKbWfAhgKePRJWFQuHE0jqnb6zfh0rr9Ly5bsS71h6dNUhbj+vqlr7wJCYkEujLFE5WaW29Tvw8fSAT6F2Z9jwRfXn6i8GbWejSAMXiye/7QUuDXUeOi5u4exDEEdLHyrfe6fvSacIMsQiEtL1v1K1wtRpDJzgx4zXPoKN3iva9aniSKurkF1Q0SScuuHT3B8KVnvF9Ld1Oh8ssz7lmqmAIVE6WBqqcyO2N9Y5qnoQCClHIo5A0ySQcbVTJGVWtnFEZPGRMkuTPSl5fzGoXGYe8bwxSuqIsFOBY9ANIWzWFK/zxx2oTfWzWTFVTp+POZtxrT5wIVffxaXhq1tc77G7vdXX2u5B8zCz4UIHmCG7pfrMdQZRwk6JReTq8kdcL9zZpHzKK8Aa3mOQjhzaqSiy2ya9ePmRQVggXe7yxxVWurtUBrz0syYJ/QZHR3OXEYx0i2hicEVd3dinvjzL6xTsy5V1Y4fYOeBdr3ISOIJ+Ak7WOZYBbGjscdocpMhMNVKHd6LwPjnjD8nT0eisbHE6KUysaA5PbI79W5km9VsZ1IV8ExPVtjod1E9CzoNrvGWaPf4eMGZSBZhwc8hUvXPVLhj+ubmJO/phi+o22WNXR53K5DXoaEDaubgT0BZmd2zsiz+jNvoeKRqWT03DvCAuecMbHJ039O1pyeBIyJmKhmtO6FgEaCRC394KGPfMZpIEqdDrT8z7eqC8D8URyeeOVwRSpIZFbuwEwkf6ZLoEVpG6v3siOftfljWBAMEA5MjLp0VoJwlfor5EIpo+SP6mlCo8CGr2zb9wLXCRMw5OexzHjWUP+MbvkR0af/pl2AanfZ2E1Y/Zxri9zPi6Q8+cKhcLqJidv3PKkDRnsw/1UQTOUgRpiFbrti+tI+ne5F+OIosN9/xpVeKABn19v7YOH5M9FGCdSHPYlQxHKOHP+xQ0PLjKkCo3vF+Crz0OsGT4za6Cqe5BFKZT+XY6FPOnyOvJqUgXDA4qK2qdrLi9SkPPLSGe/S31fU9PMXN8K6d/nUjZG1Dr4+H2ZPDTU5c7/PEG1VOHmTc4YEfxTAlUXV5GmDlUTNJBi66AKeRtCLx4VTekLysNbqxFU+fzxoQltQ/kQqwAicEwfIn9STVWl1chXt7mmKpFIXt0K6C+0flwfnHB7fUYEg4ggza/4FWfPbPBVc5fz1pr/obkaqELVatiM5JxSBaRu7oS+Ec2zpspq7d92UG8acdNQaKI2KtXSQvgKHjPDoDe1VKGAPzwJpX+Ue+WOKkmSl/7pH3NrumGy3X8SMXJcABJ2TauI4S8b2h3wW4FQVW6tbWHOLowrAHNEFWKtzS6iF0utCave0IzGDsfRacjIhUzhAXmpXy1UIe37c14oVFXch9YbI7LUlHJBFZCyO6LDE5rnoaMNtc33i9wZ+yoIxWaziir4weR2tjoQ4QqDqr8qrK3d8uTr9I9yL+JU4YDovEan9CxtUNPMyJ+xDd+jAXl3m5bZvzJVLczxaSjvXwLVUVUufwG02o0rWclShaO52OjYtPeT9ihV3cRsbAcMG6bxWDZG7Owvaqq6B1kjl2UmSxXriU3MeLXOi8KpkSyvb3F5QQpinGL3YFFT9XmYNbL8IUiVxxubmvWVaUfK0sisfuMM+5r+VG+DKgPHqpOiyuuLT8/7ymq1I9VgX9ng8vtNjVJFWESo8vnjMwt+rQtjoDSprLcvmmBvPkoVYWVPlZ+Lzy76y+s0z6GtqLfPr/h1D4IgKEoVYWVJFZCaW/bLI0me/HFmw0/AoklWM6dUEVY2VIEJBBuEHMWfvWroK5GEeX0xnN0MolQRlm6qgNTCKqd1KgEMGT1KRbfHLEhBlCrC0kcVF4gvrb04JyeDfaqxjc94XSyBWRUERakiLK1UIUQF+cTyOqdjTZWP1bbRKS/jjOb9ZihEqSIs9VR9kDc4Ye9swuqmTqSGJjw2xoybWVCqCEsTVR39rsmvXnklYI1IlVbZBsbc9/ujmCxM3YtSRViaqKppYXS8lyqx2HpH3TdWwSTrqDwVpYqwNOVVAEvx/7xq+MnnIfbqxrxIQZQqwtJElVYDUl0D7MV1xOQ71FOqCCt3VOGAyMD2fvLmWUXzJVGqCCunsaqsxj675OdMv58FpYqwckoVjlndzOweBEUTLHSRQZQqwsopVTCkVp0DrlurmPcbkEGUKsLKNVWw0irb+LTXmInI+kSpIiwDqMKRK+vt37YDJtxfLyVKFWEZQFXKWrudZ5cRM6x6+FSUKsIyjKqSSuvAuNvJmjFvp1QRlmFU4fjldfbldY7sWshERKkirCyp+kvjZ5yGdsfRb9NtdEipIqwsqaprc3QPsp9q1K6rCQR7hlmr3VybslKqCCsbqho7HPu/+Os7edEz9RHrU7VtdtEfNM22VRClirB0U1Xf5tj7yQuiFE8k0anVNGsYdIU/Bo5ZLrJNUJQqwtJHFZDa/fHvekDhsLS4qm37+7Ze19WNYJJxoZQqwtJBVV2rY2c/GIn8hwgnG+0fc6vvB0urbJOzXjofMEsVCVW1LY7tPSVSkCTJK/Qjhqm/N5YG5ttOwAxr4VOqCEsTVdVN8qpl4SdIpYQca2WDK0M9qO724M+aOp1/zsN5H8xOqSIsDVTdvxTI/JHY7Y0NTXjUL4KNvxyZ9LCePH94plQRlqZY1Tvyyt4QyL7PLuWVW9XfofQLd8NXbXwsShVhaaTqmTVhFBJFaX2bq1A9FQfnRTaW3xfulCrCIk4VhL8Z++JV3w+icjR4gXWFKFWElQuq4OvLGxxTQz/4qUbeJi5fy6NRqggrF1RB6Ae39wKWBg39YFUTs/+TN2zT5ceiVBFWjqiC/Fx8atanfgcb9INdA/n58EypIqzcUYUjX98K8s6lqu9WaZVtYiYPL9wpVYSVO6qgaEzaOwiqX+0Df1bZYM9+d2etolQRVk6pgoJ8Ynrep2mPJIS3i+uIkR+eKVWElWuqcPxbm9jRr3a7ZVjqhbvbwBfulCrCyjVVEMq6gyMet0FxtJcMLSmvs69tchGjPjxTqgjLAKogPpT4uuhHP6j+zskfni8ixqxPRKkiLGOowlmsdrFLy4be+Mvxaa8xK39QqgjLGKqgeFweiFzXquGFO+7c6XnYgImplCrCMowqCP3g7JLcDyoO+5LhL2cWfAYMZ6BUERaourqJqNkfNvUNOJtXlDiX3SH2jqgdiJw6owGdIKWKvBhnFJX/exVUoeDP8h4j+8bNUD8QubPfZcCrdkoVeaFjGprwvOrTEosNdVz289lxuvllvzwxVcVd7OijVGWSealCHr2wymVOd9Cwj1W2je2AmPVqQbgRTjY6MO4uea0fLLXYpudoXpVJWqgydvwa0h2UWq9WZ10DLKkl89APnp6FW7qdH56c5cHQmJpm5n6uRPpXuVPxU4WbxzgMpQpKVWfldS/uI1LdxBwckhwELIjSwVGoucuJdO3pSfH/pCfOG7JzrtUutvcVMVUV1pYu582dkP6RUUK48nHxta0AIlaJRfYaDPk7/vmx2oZ7//3HM3MAsxTA+nUcQj6eyrEeDJxV1tu/zPncXoN2e7u+FXCN6jfORCMLjCo57F9E0j8yVuAGp56a9SJHrm93NHY4ugbZuWXu6kYQczM0JRZL2hhxYYVDqEBhCKYbO5zDE569A97IPSnPLiM4teJeZLACowpWVms7PAmlf2S4JCkZESSPN3ZxHUHIRP2F9DynmQ3QAc1IJXFGJFs4Kc8n0NUahhR0chq2NGpYfaTwqEIHhO7GSJ8+KzTA4DbgdLhJebnwn0ehshoNI8AKjypkFaubXDQfkwLeplCQbn0PqJ9nBis8qmCjUx7jx26/WXGB+MSMV3ELMltBUoXM8drwMvDN6tYqNHVoSNVhhUcVWoxifvN7IGruvV+KQyhCd/aDn6rVrmuasoKMVUitBidoJ2iE0P2NT3vhcMUtyGwFSZXc6Gbm/NLQeSZvUKg3r2+FRo3dH6wgqYKVVsnrDry0/hgVEcG9Cyvycqaauj9YoVIFa+p0yuux0uQqN0I/cHktwMkKt6uxAqbq4324Mmz20ltTKKR5+uuDmYgqHSlhc6fz8jqSl9fNxS1JSp6calsb97GZiKpPWr4JpAxd/syCz5jRIG9KHm9seFLD+qUKMxFVOrpwZJFVjczaJsebb5+qwhWSdLi0ol7t2lpPzURUTc36FI1TZff793/beXE9aipNkqfnH/KvDnzNbCai6vg0XNei82JqW5kfhzx9256lUPddXEdatAzQe9ZMRFXqNe7/NObsD4bMHVxSsHQLUQqlT0efhtVpXjITUYW6Qw5XWcTe5i4nojfxkb5vQUhMdw94OFDhUn1mIqrwv0AwPvlVw1KZTw3F8NZugFaF6pVMyiuUrmxwmvaay2zmogqNuLoRWnuyemKqmpi5Zb/dISKkpw5N9ZJEUbq5E1AnoeIjhRTMXFRBuM7Vb1xZrYaVnBSGTLOs1v55iN3eCzpc0ZjJ9jA2ieAWxhnd2A6097o+6nqBnsFMRxUCspONql/BIoNV1Nl7htmt3SAOCCfSV/AQnBCPJ92e2Pf9IB688lr9L6UymOmognDZSNsb2jUPwHjWENvhPuQNfy7CSCBQJL41vGSSEklBlHz++NlFZH2T6xtxq99AQIelqDo5DeXd1f9SBYXD0uoml2GusHqTj1Au79iB6rJv1L22yV3fCl5fHIQFAgnk9aFwIiJIRWURCTVdICBfI+uO3VqFgyP+66K/a5CFE5AepN3yxFekDAeva2UOT0LhCGHfIkFCupxIqA0N/6EK8vrlrRPQ5Wf5Ru7BUn6ET/EYtXY7uwfZwXHP+LQX7l5c45bWuSX8swhsnVtc5abmfAPj7o4+V2O7A9eLyFR6v+hoTmF6MJwFNdOXOd8yvErQsevc+ha3+4M/OgmdX0bu7KLXF0MMzkCYkir8qcMZHRx3Z/Oi4amlPJtyLlI3HBzu/lhdbFZSZUslpo+v10jD2RVNImKfqm2o5NCJIbGpbmJ6huXOB4R5vDJeaXQeSUkVBLDubCKyouwz9wyGWPjg+qIxxTXmxRRNyoXhLAgKNc1M/5gbYczOiIqVnp6hCkq9wdK02Qu1t2llNfauAdfGdkB+nfTPq8rnqYIkKXlxFWntkdfcURyIGrXHhuhVUWfvHmJ3D/jUYnEvUgUlpOTVrdAzzOob8Ert7ViqZ0SfuLLBoQTORBUkSX/bGHF4wpOqZRTHokZNYQhaI5OeV6iCkLwzjujYF2+ZupVYqb1xQ8r0OlUQwHJ7YvPLfoQ4xSGoUXtqqqiCAFaAT+z95Dv6XDTNopbZ1FKVUjSWvLEK0/O+2hYGgY52iNSeNW1UQXLQCiaOT0P9Y26kZjgEZYuawjRTlVIikWTd0e29YNcgS9mipjCdVEFJdIjRpJONbu0GuwdZS4Od9onUUqafqgfFYjJbewfB8Rlvc5dTXsvrn69F1N6mEaAqJUmSN16/uhHWtwIjk57Wbid6xg+V/1aLKdT+tUeNoFZkRoyqlNAtInT5ufitVTw8Ca1scGNfPF0D8lr45bV2eVhFlTwGRjaLrYSaqU1+nwlEdIQAwlQ9FqpFUZQJc7HRO5t4fhn5ecRv7wbWt7jlDW5+hfu66JtZoGZSm57zjUx5Ogdc1c0MwgFYAV6P0clgOaTqqSQpiUgmivKg1XA4wYeomdeQz3BcXN6P4yqytMa13GfMCnpeMkOpoipEoc9BFEBv83XRr3ICI6WKSpWQMSOZWVzjqpte/xZMqaLSIHSLq9+4ytfmn1GqqLTJ7Y31j7kz94OUKiptiieSewfBqsZMCRalikqznGy0a4ClVFGRVDQqzSz4MqyKS6mi0ix578LdQMXLKydQqqg0S5KSPw/5qpd376VUUWmWJP199DtU8/IqgZQqKs2iVFGRl0zVCaWKiqhA1cmfcG0LpYqKnJLJ+22hO52UKiqS8vpj7X2u92VKnlJGqaLSo3BEGpnyvLReEKWKSo9i8eTOXvClF6GUKio9Qmp1ZxMbO57fqIZSRaVToXBibtmfGtKuMEoVlU4hXN3cCc9u7USpotIvQZC+7QQqnwxmp1RRZaVA8H5Te8t/FuinVFFlK483hgTr8SwJShUVAQV5efvM9j5Xas4gpYqKjMRo8s4mzq9wTZ1OShUVMaEqDIUSKAwpVVSEBbYoVVTkRamiIi9KFRVp/f33/wGjjHMT7VbPqwAAAABJRU5ErkJggg==;aspect=fixed;fontStyle=1" vertex="1" parent="1">
                    <mxGeometry x="1338" y="357" width="70" height="70" as="geometry"/>
                </mxCell>
                <mxCell id="17" value="" style="sketch=0;html=1;dashed=0;whitespace=wrap;fillColor=#2875E2;strokeColor=#ffffff;points=[[0.005,0.63,0],[0.1,0.2,0],[0.9,0.2,0],[0.5,0,0],[0.995,0.63,0],[0.72,0.99,0],[0.5,1,0],[0.28,0.99,0]];shape=mxgraph.kubernetes.icon;prIcon=pod" vertex="1" parent="1">
                    <mxGeometry x="816" y="216" width="50" height="48" as="geometry"/>
                </mxCell>
                <mxCell id="18" value="" style="whiteSpace=wrap;html=1;" vertex="1" parent="1">
                    <mxGeometry x="1049" y="204" width="116" height="124" as="geometry"/>
                </mxCell>
                <mxCell id="19" value="" style="sketch=0;html=1;dashed=0;whitespace=wrap;fillColor=#647687;strokeColor=#314354;points=[[0.005,0.63,0],[0.1,0.2,0],[0.9,0.2,0],[0.5,0,0],[0.995,0.63,0],[0.72,0.99,0],[0.5,1,0],[0.28,0.99,0]];shape=mxgraph.kubernetes.icon;prIcon=pod;fontColor=#ffffff;" vertex="1" parent="1">
                    <mxGeometry x="1054" y="213" width="50" height="48" as="geometry"/>
                </mxCell>
                <mxCell id="20" value="" style="sketch=0;html=1;dashed=0;whitespace=wrap;fillColor=#647687;strokeColor=#314354;points=[[0.005,0.63,0],[0.1,0.2,0],[0.9,0.2,0],[0.5,0,0],[0.995,0.63,0],[0.72,0.99,0],[0.5,1,0],[0.28,0.99,0]];shape=mxgraph.kubernetes.icon;prIcon=pod;fontColor=#ffffff;" vertex="1" parent="1">
                    <mxGeometry x="1054" y="270" width="50" height="48" as="geometry"/>
                </mxCell>
                <mxCell id="26" value="" style="sketch=0;html=1;dashed=0;whitespace=wrap;fillColor=#2875E2;strokeColor=#ffffff;points=[[0.005,0.63,0],[0.1,0.2,0],[0.9,0.2,0],[0.5,0,0],[0.995,0.63,0],[0.72,0.99,0],[0.5,1,0],[0.28,0.99,0]];shape=mxgraph.kubernetes.icon;prIcon=pod" vertex="1" parent="1">
                    <mxGeometry x="1110.5" y="213.5" width="50" height="48" as="geometry"/>
                </mxCell>
                <mxCell id="27" value="" style="sketch=0;html=1;dashed=0;whitespace=wrap;fillColor=#2875E2;strokeColor=#ffffff;points=[[0.005,0.63,0],[0.1,0.2,0],[0.9,0.2,0],[0.5,0,0],[0.995,0.63,0],[0.72,0.99,0],[0.5,1,0],[0.28,0.99,0]];shape=mxgraph.kubernetes.icon;prIcon=pod" vertex="1" parent="1">
                    <mxGeometry x="1110.5" y="270.5" width="50" height="48" as="geometry"/>
                </mxCell>
                <mxCell id="28" value="" style="whiteSpace=wrap;html=1;" vertex="1" parent="1">
                    <mxGeometry x="1106.5" y="377" width="115" height="124" as="geometry"/>
                </mxCell>
                <mxCell id="34" value="" style="sketch=0;html=1;dashed=0;whitespace=wrap;fillColor=#2875E2;strokeColor=#ffffff;points=[[0.005,0.63,0],[0.1,0.2,0],[0.9,0.2,0],[0.5,0,0],[0.995,0.63,0],[0.72,0.99,0],[0.5,1,0],[0.28,0.99,0]];shape=mxgraph.kubernetes.icon;prIcon=pod" vertex="1" parent="1">
                    <mxGeometry x="1110" y="386.5" width="50" height="48" as="geometry"/>
                </mxCell>
                <mxCell id="35" value="" style="sketch=0;html=1;dashed=0;whitespace=wrap;fillColor=#2875E2;strokeColor=#ffffff;points=[[0.005,0.63,0],[0.1,0.2,0],[0.9,0.2,0],[0.5,0,0],[0.995,0.63,0],[0.72,0.99,0],[0.5,1,0],[0.28,0.99,0]];shape=mxgraph.kubernetes.icon;prIcon=pod" vertex="1" parent="1">
                    <mxGeometry x="1165" y="386.5" width="50" height="48" as="geometry"/>
                </mxCell>
                <mxCell id="36" value="" style="sketch=0;html=1;dashed=0;whitespace=wrap;fillColor=#2875E2;strokeColor=#ffffff;points=[[0.005,0.63,0],[0.1,0.2,0],[0.9,0.2,0],[0.5,0,0],[0.995,0.63,0],[0.72,0.99,0],[0.5,1,0],[0.28,0.99,0]];shape=mxgraph.kubernetes.icon;prIcon=pod" vertex="1" parent="1">
                    <mxGeometry x="1110" y="443.5" width="50" height="48" as="geometry"/>
                </mxCell>
                <mxCell id="37" value="" style="whiteSpace=wrap;html=1;" vertex="1" parent="1">
                    <mxGeometry x="1178" y="204" width="116" height="124" as="geometry"/>
                </mxCell>
                <mxCell id="38" value="" style="sketch=0;html=1;dashed=0;whitespace=wrap;fillColor=#647687;strokeColor=#314354;points=[[0.005,0.63,0],[0.1,0.2,0],[0.9,0.2,0],[0.5,0,0],[0.995,0.63,0],[0.72,0.99,0],[0.5,1,0],[0.28,0.99,0]];shape=mxgraph.kubernetes.icon;prIcon=pod;fontColor=#ffffff;" vertex="1" parent="1">
                    <mxGeometry x="1183" y="213" width="50" height="48" as="geometry"/>
                </mxCell>
                <mxCell id="39" value="" style="sketch=0;html=1;dashed=0;whitespace=wrap;fillColor=#647687;strokeColor=#314354;points=[[0.005,0.63,0],[0.1,0.2,0],[0.9,0.2,0],[0.5,0,0],[0.995,0.63,0],[0.72,0.99,0],[0.5,1,0],[0.28,0.99,0]];shape=mxgraph.kubernetes.icon;prIcon=pod;fontColor=#ffffff;" vertex="1" parent="1">
                    <mxGeometry x="1183" y="270" width="50" height="48" as="geometry"/>
                </mxCell>
                <mxCell id="40" value="" style="sketch=0;html=1;dashed=0;whitespace=wrap;fillColor=#2875E2;strokeColor=#ffffff;points=[[0.005,0.63,0],[0.1,0.2,0],[0.9,0.2,0],[0.5,0,0],[0.995,0.63,0],[0.72,0.99,0],[0.5,1,0],[0.28,0.99,0]];shape=mxgraph.kubernetes.icon;prIcon=pod" vertex="1" parent="1">
                    <mxGeometry x="1239.5" y="213.5" width="50" height="48" as="geometry"/>
                </mxCell>
                <mxCell id="42" value="" style="sketch=0;html=1;dashed=0;whitespace=wrap;fillColor=#2875E2;strokeColor=#ffffff;points=[[0.005,0.63,0],[0.1,0.2,0],[0.9,0.2,0],[0.5,0,0],[0.995,0.63,0],[0.72,0.99,0],[0.5,1,0],[0.28,0.99,0]];shape=mxgraph.kubernetes.icon;prIcon=pod" vertex="1" parent="1">
                    <mxGeometry x="816.5" y="277" width="50" height="48" as="geometry"/>
                </mxCell>
                <mxCell id="44" value="" style="whiteSpace=wrap;html=1;" vertex="1" parent="1">
                    <mxGeometry x="1467" y="246" width="135" height="280" as="geometry"/>
                </mxCell>
                <mxCell id="45" value="" style="sketch=0;html=1;dashed=0;whitespace=wrap;fillColor=#647687;strokeColor=#314354;points=[[0.005,0.63,0],[0.1,0.2,0],[0.9,0.2,0],[0.5,0,0],[0.995,0.63,0],[0.72,0.99,0],[0.5,1,0],[0.28,0.99,0]];shape=mxgraph.kubernetes.icon;prIcon=pod;fontColor=#ffffff;" vertex="1" parent="1">
                    <mxGeometry x="1475" y="254" width="50" height="48" as="geometry"/>
                </mxCell>
                <mxCell id="46" value="" style="sketch=0;html=1;dashed=0;whitespace=wrap;fillColor=#647687;strokeColor=#314354;points=[[0.005,0.63,0],[0.1,0.2,0],[0.9,0.2,0],[0.5,0,0],[0.995,0.63,0],[0.72,0.99,0],[0.5,1,0],[0.28,0.99,0]];shape=mxgraph.kubernetes.icon;prIcon=pod;fontColor=#ffffff;" vertex="1" parent="1">
                    <mxGeometry x="1475" y="311" width="50" height="48" as="geometry"/>
                </mxCell>
                <mxCell id="47" value="" style="sketch=0;html=1;dashed=0;whitespace=wrap;fillColor=#2875E2;strokeColor=#ffffff;points=[[0.005,0.63,0],[0.1,0.2,0],[0.9,0.2,0],[0.5,0,0],[0.995,0.63,0],[0.72,0.99,0],[0.5,1,0],[0.28,0.99,0]];shape=mxgraph.kubernetes.icon;prIcon=pod" vertex="1" parent="1">
                    <mxGeometry x="1475" y="364" width="50" height="48" as="geometry"/>
                </mxCell>
                <mxCell id="48" value="" style="sketch=0;html=1;dashed=0;whitespace=wrap;fillColor=#2875E2;strokeColor=#ffffff;points=[[0.005,0.63,0],[0.1,0.2,0],[0.9,0.2,0],[0.5,0,0],[0.995,0.63,0],[0.72,0.99,0],[0.5,1,0],[0.28,0.99,0]];shape=mxgraph.kubernetes.icon;prIcon=pod" vertex="1" parent="1">
                    <mxGeometry x="1476" y="420" width="50" height="48" as="geometry"/>
                </mxCell>
                <mxCell id="49" value="" style="sketch=0;html=1;dashed=0;whitespace=wrap;fillColor=#647687;strokeColor=#314354;points=[[0.005,0.63,0],[0.1,0.2,0],[0.9,0.2,0],[0.5,0,0],[0.995,0.63,0],[0.72,0.99,0],[0.5,1,0],[0.28,0.99,0]];shape=mxgraph.kubernetes.icon;prIcon=pod;fontColor=#ffffff;" vertex="1" parent="1">
                    <mxGeometry x="1540" y="254" width="50" height="48" as="geometry"/>
                </mxCell>
                <mxCell id="50" value="" style="sketch=0;html=1;dashed=0;whitespace=wrap;fillColor=#647687;strokeColor=#314354;points=[[0.005,0.63,0],[0.1,0.2,0],[0.9,0.2,0],[0.5,0,0],[0.995,0.63,0],[0.72,0.99,0],[0.5,1,0],[0.28,0.99,0]];shape=mxgraph.kubernetes.icon;prIcon=pod;fontColor=#ffffff;" vertex="1" parent="1">
                    <mxGeometry x="1540" y="311" width="50" height="48" as="geometry"/>
                </mxCell>
                <mxCell id="51" value="" style="sketch=0;html=1;dashed=0;whitespace=wrap;fillColor=#2875E2;strokeColor=#ffffff;points=[[0.005,0.63,0],[0.1,0.2,0],[0.9,0.2,0],[0.5,0,0],[0.995,0.63,0],[0.72,0.99,0],[0.5,1,0],[0.28,0.99,0]];shape=mxgraph.kubernetes.icon;prIcon=pod" vertex="1" parent="1">
                    <mxGeometry x="1539" y="364" width="50" height="48" as="geometry"/>
                </mxCell>
                <mxCell id="52" value="" style="sketch=0;html=1;dashed=0;whitespace=wrap;fillColor=#2875E2;strokeColor=#ffffff;points=[[0.005,0.63,0],[0.1,0.2,0],[0.9,0.2,0],[0.5,0,0],[0.995,0.63,0],[0.72,0.99,0],[0.5,1,0],[0.28,0.99,0]];shape=mxgraph.kubernetes.icon;prIcon=pod" vertex="1" parent="1">
                    <mxGeometry x="1540" y="420" width="50" height="48" as="geometry"/>
                </mxCell>
                <mxCell id="53" value="" style="sketch=0;html=1;dashed=0;whitespace=wrap;fillColor=#2875E2;strokeColor=#ffffff;points=[[0.005,0.63,0],[0.1,0.2,0],[0.9,0.2,0],[0.5,0,0],[0.995,0.63,0],[0.72,0.99,0],[0.5,1,0],[0.28,0.99,0]];shape=mxgraph.kubernetes.icon;prIcon=pod" vertex="1" parent="1">
                    <mxGeometry x="1539" y="471" width="50" height="48" as="geometry"/>
                </mxCell>
                <mxCell id="54" value="" style="sketch=0;html=1;dashed=0;whitespace=wrap;fillColor=#2875E2;strokeColor=#ffffff;points=[[0.005,0.63,0],[0.1,0.2,0],[0.9,0.2,0],[0.5,0,0],[0.995,0.63,0],[0.72,0.99,0],[0.5,1,0],[0.28,0.99,0]];shape=mxgraph.kubernetes.icon;prIcon=pod" vertex="1" parent="1">
                    <mxGeometry x="1477" y="471" width="50" height="48" as="geometry"/>
                </mxCell>
                <mxCell id="57" value="&lt;b&gt;Pending Pods&lt;/b&gt;" style="text;html=1;align=center;verticalAlign=middle;resizable=0;points=[];autosize=1;strokeColor=none;fillColor=none;" vertex="1" parent="1">
                    <mxGeometry x="732" y="189" width="90" height="18" as="geometry"/>
                </mxCell>
                <mxCell id="58" value="&lt;b&gt;Unschedulable Pods&lt;/b&gt;" style="text;html=1;align=center;verticalAlign=middle;resizable=0;points=[];autosize=1;strokeColor=none;fillColor=none;" vertex="1" parent="1">
                    <mxGeometry x="717" y="380" width="128" height="18" as="geometry"/>
                </mxCell>
                <mxCell id="60" value="&lt;b&gt;Existing Capacity&lt;/b&gt;" style="text;html=1;align=center;verticalAlign=middle;resizable=0;points=[];autosize=1;strokeColor=none;fillColor=none;" vertex="1" parent="1">
                    <mxGeometry x="1110.5" y="178" width="110" height="18" as="geometry"/>
                </mxCell>
                <mxCell id="61" value="&lt;b&gt;Just-in-time Capacity&lt;/b&gt;" style="text;html=1;align=center;verticalAlign=middle;resizable=0;points=[];autosize=1;strokeColor=none;fillColor=none;" vertex="1" parent="1">
                    <mxGeometry x="1095" y="354" width="131" height="18" as="geometry"/>
                </mxCell>
                <mxCell id="73" value="&lt;b&gt;Optimised Capacity&lt;/b&gt;" style="text;html=1;align=center;verticalAlign=middle;resizable=0;points=[];autosize=1;strokeColor=none;fillColor=none;" vertex="1" parent="1">
                    <mxGeometry x="1476" y="225" width="122" height="18" as="geometry"/>
                </mxCell>
                <mxCell id="9" value="Karpenter Allocator" style="shape=image;verticalLabelPosition=bottom;labelBackgroundColor=#ffffff;verticalAlign=top;imageAspect=0;image=data:image/png,iVBORw0KGgoAAAANSUhEUgAAAMcAAADGCAIAAADpOwM0AAAAAXNSR0IArs4c6QAAAARnQU1BAACxjwv8YQUAAAAJcEhZcwAADsMAAA7DAcdvqGQAAAASdEVYdFNvZnR3YXJlAEdyZWVuc2hvdF5VCAUAABn3SURBVHhe7Z2HV9vYEsbz32dfIKGY3mvoHQKh11AChIQSQgfbsi032bItucj7PmEvywowknwty+Z+Z96e3XewdDX6ae6MdMu7v6moSItSRUVelCoq8qJUUZEXpYqKvChVVORFqaIiL7NQlUzKJkl/R6NJPpQIBBN+Lu7zxz2eGOuOOdmoI0+GU6MBaAYagyahYWheNJZEU1NtpnqqvFGVYigWS+JW2Rjx7CJycMh/2wnMr/inZn3j097RKe/QhGdgzN034u4ZZj/nyXBqNADNQGPQJDQMzZtf4dBUNPjsMoLG4xJwIbgcqpSMpkqSkrgBQT5xaxX3DvjZRf/AuLujz9XQ7rA02Ess1r8qrH+V/2MV1v/BHv4zT4YGoBmKhpVarGhwY7ujo981OO6eW/YDMhDG84l7wt50EDOIKjhZjEp4pk/Pwysb3OC4p7nLibvyodL6vuzu4W7JDBWOPTQbl4DnoaqJae12IaStbXJ/LsK42GhUeptdZM6pwoPLBeJXN5H1La5/zF3bwnyqseOWvC9AjDLbPV7yv5TV2nGZuNj1rcDVjYDLhxPS7ngbyhVVeEZFUXK4ors/gqNTnrpWx6caGyJTkZH0rKX6SlwsLrm+1TH6xYO+Hq5AtE57p9hFnirwFI5It1YBHUHXAFteJ3dz8PJb4Elh8iXf4wUndA+yiNZ3NiESKf5ukTBV4OnyRkAd19br/Fhlkz37xNdv0FJO+Fhta+91Laxy6BbhqLTLilHEqEokkqwntrzOIQ0vrbK9wcikxuAWOKely4mSxe2JwWlp9xWXCFCFeM6HEke/Qyiwy2opT68bXFReax+acB+fhkOhRPF1iNlSFYsnGUd0foVD1VOC/OmJB6k9awAL+RaKGHSISOTj8aIiKyuqIoJ0dBrqGWZR7NAQpcPgNET33hH2+E9YEIon09JJFYI2F0hs7QYa2h0KT1HTbJXWxnbHzl4wECyS3lAPVfFE0u4QZxf9VY2M0kHU9Fp1EzO37Gec0SJI4TVThUTq7DLSO+JGr6fwC7UsrazG1jfi/nMeiRb4u3htVMViydPzcHufCy6giRRxS7m0tcd1cMQLYgGnWRqownUe/w639cpIGWmpDyB5NEV7DLD6Ngdy1lA4kXZ9oUktVeFw4vt+sKnD+eGJC8ha6ka+L7uD4T8/VtvKa+0V9XZLA1PVxCD5qDHEcCJLI1NZb8fZU18wU00yjDNLg31pjUP+nr4BBSVVVAGpje0AfK24coL2cLfgzZZuZ/cgOzjumZr1La1zOPX2XmDvgEe/cHjMH54YYb+O+f2f/M5+8NtOYOUbN7PgH5709Ayz7b0u+Ut5tfwmJaeE4ch4ohZWuEKMWK9TFYlIm98DiBO582CJRa6AugfY6Xkf7uXNneD2xOBNpHHxeBI1UcokyVB7OC9qXjRDECSfP26ziyd/wgB9YsbbNcCi2QhjisshZXA4giWcX3Cvsl6hCrnU9x/B2pacRKnUx3zcm/kV7ugkhKI6IuBuyi/DzCw0D6jxoQTjiB4eh2YX/R39rrJaeWiG4gKJGHKsg0O+sEbRZKIqGpVwPbl4z1laZWvqdE7O+vZ/8TJMBTs4BM1GTLU7xL2D4NgXLzpHXBoukGxcb+5yHp6ECuh1w4tUIeyfnodbupyKK8zSkCs0dzrnlvzXt0KQT+As6fMVuNBFcoH4+VVkdskPCIi/zGvrcZ1dRBAj0+czt56nCo+g3RFFckoqquPZLbHYUEKCp6tbAc93Uc5IwUXh0m6tIooMeUSQhdjnUdyIvlE34nr6TObW81RxgcTXRb/8zfjJ5emxcjkZRwdxdhlBZ1f0M5zwTCJBRNya/OqtaSZT5eAgZTU2PJMF8a7hGapQcWyh6Gsk4w74onuQRdrh5+JyKv5mhIvlgvH9n8HOARf6fYVb9Bkezp29oPlfuyupQs+NyhkZevZRClACzbllPzrTtzbJ5EG48Dub+GXOV9lA5ilt7HCcniGBMLU/lVR5/bHhSY/iSnQY8gBc//auPLojfei3KnSIiNMb24HaFjLV9OiUBwdMH92U+g9VqF13f/CVDfJ8vWwM1TUy/d9nRTUSLUuFI9KPXzzqX4WvdJilkdn/yZs5/P+HKhcr132Ka9BqiFK9I+6bO6HIRs1mLzEqofNCllliUTpNm6EeHHGznlj6uObTv1QhB1zb5Mpr7VlmVJ+HWGQSdCmLZ4V8yGYX+8fcqWlt+gw3qLzOji5VNGvanqYKff+tTWzryWqUC7LRjn7XrVXA0aheEpzjdEVHpjzZgAVr73NZ7aI5XZ2mKiJICyt++VP8k9arNCDV0u28uI5QpF5VGqxJj+43DrhNn2psS2ucOTNXmSpcJNKg1m5nNqVvQ7vj8CREcymVgs9tjNwVllj0glVubet1mrNnkKm6D1Qcnht9gQqXl/6uXsiDYo1XIpE8v4wgwCv8qdLg9nS4Mp/b34H061uhtcelO1BVNcpjgIBm+pBUqoWq8PuPYHUTo/t5but1oZ8xW7R6h455cU0OVIoWqzQ8Ll8X/IGAqV/KmVlBPrG4KpfeCseqNNy4lQ3That3jCPaNcDqDlS9I6zdYdJKpFDEemKD4zq/Z+DGfR5iHSYby/Duxy++sl7ng1LbQjN0AkKCdXwaQm6qcK9Kq2yw/zwKmerL/bupWZ+ilSqt1GKbWfAhgKePRJWFQuHE0jqnb6zfh0rr9Ly5bsS71h6dNUhbj+vqlr7wJCYkEujLFE5WaW29Tvw8fSAT6F2Z9jwRfXn6i8GbWejSAMXiye/7QUuDXUeOi5u4exDEEdLHyrfe6fvSacIMsQiEtL1v1K1wtRpDJzgx4zXPoKN3iva9aniSKurkF1Q0SScuuHT3B8KVnvF9Ld1Oh8ssz7lmqmAIVE6WBqqcyO2N9Y5qnoQCClHIo5A0ySQcbVTJGVWtnFEZPGRMkuTPSl5fzGoXGYe8bwxSuqIsFOBY9ANIWzWFK/zxx2oTfWzWTFVTp+POZtxrT5wIVffxaXhq1tc77G7vdXX2u5B8zCz4UIHmCG7pfrMdQZRwk6JReTq8kdcL9zZpHzKK8Aa3mOQjhzaqSiy2ya9ePmRQVggXe7yxxVWurtUBrz0syYJ/QZHR3OXEYx0i2hicEVd3dinvjzL6xTsy5V1Y4fYOeBdr3ISOIJ+Ak7WOZYBbGjscdocpMhMNVKHd6LwPjnjD8nT0eisbHE6KUysaA5PbI79W5km9VsZ1IV8ExPVtjod1E9CzoNrvGWaPf4eMGZSBZhwc8hUvXPVLhj+ubmJO/phi+o22WNXR53K5DXoaEDaubgT0BZmd2zsiz+jNvoeKRqWT03DvCAuecMbHJ039O1pyeBIyJmKhmtO6FgEaCRC394KGPfMZpIEqdDrT8z7eqC8D8URyeeOVwRSpIZFbuwEwkf6ZLoEVpG6v3siOftfljWBAMEA5MjLp0VoJwlfor5EIpo+SP6mlCo8CGr2zb9wLXCRMw5OexzHjWUP+MbvkR0af/pl2AanfZ2E1Y/Zxri9zPi6Q8+cKhcLqJidv3PKkDRnsw/1UQTOUgRpiFbrti+tI+ne5F+OIosN9/xpVeKABn19v7YOH5M9FGCdSHPYlQxHKOHP+xQ0PLjKkCo3vF+Crz0OsGT4za6Cqe5BFKZT+XY6FPOnyOvJqUgXDA4qK2qdrLi9SkPPLSGe/S31fU9PMXN8K6d/nUjZG1Dr4+H2ZPDTU5c7/PEG1VOHmTc4YEfxTAlUXV5GmDlUTNJBi66AKeRtCLx4VTekLysNbqxFU+fzxoQltQ/kQqwAicEwfIn9STVWl1chXt7mmKpFIXt0K6C+0flwfnHB7fUYEg4ggza/4FWfPbPBVc5fz1pr/obkaqELVatiM5JxSBaRu7oS+Ec2zpspq7d92UG8acdNQaKI2KtXSQvgKHjPDoDe1VKGAPzwJpX+Ue+WOKkmSl/7pH3NrumGy3X8SMXJcABJ2TauI4S8b2h3wW4FQVW6tbWHOLowrAHNEFWKtzS6iF0utCave0IzGDsfRacjIhUzhAXmpXy1UIe37c14oVFXch9YbI7LUlHJBFZCyO6LDE5rnoaMNtc33i9wZ+yoIxWaziir4weR2tjoQ4QqDqr8qrK3d8uTr9I9yL+JU4YDovEan9CxtUNPMyJ+xDd+jAXl3m5bZvzJVLczxaSjvXwLVUVUufwG02o0rWclShaO52OjYtPeT9ihV3cRsbAcMG6bxWDZG7Owvaqq6B1kjl2UmSxXriU3MeLXOi8KpkSyvb3F5QQpinGL3YFFT9XmYNbL8IUiVxxubmvWVaUfK0sisfuMM+5r+VG+DKgPHqpOiyuuLT8/7ymq1I9VgX9ng8vtNjVJFWESo8vnjMwt+rQtjoDSprLcvmmBvPkoVYWVPlZ+Lzy76y+s0z6GtqLfPr/h1D4IgKEoVYWVJFZCaW/bLI0me/HFmw0/AoklWM6dUEVY2VIEJBBuEHMWfvWroK5GEeX0xnN0MolQRlm6qgNTCKqd1KgEMGT1KRbfHLEhBlCrC0kcVF4gvrb04JyeDfaqxjc94XSyBWRUERakiLK1UIUQF+cTyOqdjTZWP1bbRKS/jjOb9ZihEqSIs9VR9kDc4Ye9swuqmTqSGJjw2xoybWVCqCEsTVR39rsmvXnklYI1IlVbZBsbc9/ujmCxM3YtSRViaqKppYXS8lyqx2HpH3TdWwSTrqDwVpYqwNOVVAEvx/7xq+MnnIfbqxrxIQZQqwtJElVYDUl0D7MV1xOQ71FOqCCt3VOGAyMD2fvLmWUXzJVGqCCunsaqsxj675OdMv58FpYqwckoVjlndzOweBEUTLHSRQZQqwsopVTCkVp0DrlurmPcbkEGUKsLKNVWw0irb+LTXmInI+kSpIiwDqMKRK+vt37YDJtxfLyVKFWEZQFXKWrudZ5cRM6x6+FSUKsIyjKqSSuvAuNvJmjFvp1QRlmFU4fjldfbldY7sWshERKkirCyp+kvjZ5yGdsfRb9NtdEipIqwsqaprc3QPsp9q1K6rCQR7hlmr3VybslKqCCsbqho7HPu/+Os7edEz9RHrU7VtdtEfNM22VRClirB0U1Xf5tj7yQuiFE8k0anVNGsYdIU/Bo5ZLrJNUJQqwtJHFZDa/fHvekDhsLS4qm37+7Ze19WNYJJxoZQqwtJBVV2rY2c/GIn8hwgnG+0fc6vvB0urbJOzXjofMEsVCVW1LY7tPSVSkCTJK/Qjhqm/N5YG5ttOwAxr4VOqCEsTVdVN8qpl4SdIpYQca2WDK0M9qO724M+aOp1/zsN5H8xOqSIsDVTdvxTI/JHY7Y0NTXjUL4KNvxyZ9LCePH94plQRlqZY1Tvyyt4QyL7PLuWVW9XfofQLd8NXbXwsShVhaaTqmTVhFBJFaX2bq1A9FQfnRTaW3xfulCrCIk4VhL8Z++JV3w+icjR4gXWFKFWElQuq4OvLGxxTQz/4qUbeJi5fy6NRqggrF1RB6Ae39wKWBg39YFUTs/+TN2zT5ceiVBFWjqiC/Fx8atanfgcb9INdA/n58EypIqzcUYUjX98K8s6lqu9WaZVtYiYPL9wpVYSVO6qgaEzaOwiqX+0Df1bZYM9+d2etolQRVk6pgoJ8Ynrep2mPJIS3i+uIkR+eKVWElWuqcPxbm9jRr3a7ZVjqhbvbwBfulCrCyjVVEMq6gyMet0FxtJcMLSmvs69tchGjPjxTqgjLAKogPpT4uuhHP6j+zskfni8ixqxPRKkiLGOowlmsdrFLy4be+Mvxaa8xK39QqgjLGKqgeFweiFzXquGFO+7c6XnYgImplCrCMowqCP3g7JLcDyoO+5LhL2cWfAYMZ6BUERaourqJqNkfNvUNOJtXlDiX3SH2jqgdiJw6owGdIKWKvBhnFJX/exVUoeDP8h4j+8bNUD8QubPfZcCrdkoVeaFjGprwvOrTEosNdVz289lxuvllvzwxVcVd7OijVGWSealCHr2wymVOd9Cwj1W2je2AmPVqQbgRTjY6MO4uea0fLLXYpudoXpVJWqgydvwa0h2UWq9WZ10DLKkl89APnp6FW7qdH56c5cHQmJpm5n6uRPpXuVPxU4WbxzgMpQpKVWfldS/uI1LdxBwckhwELIjSwVGoucuJdO3pSfH/pCfOG7JzrtUutvcVMVUV1pYu582dkP6RUUK48nHxta0AIlaJRfYaDPk7/vmx2oZ7//3HM3MAsxTA+nUcQj6eyrEeDJxV1tu/zPncXoN2e7u+FXCN6jfORCMLjCo57F9E0j8yVuAGp56a9SJHrm93NHY4ugbZuWXu6kYQczM0JRZL2hhxYYVDqEBhCKYbO5zDE569A97IPSnPLiM4teJeZLACowpWVms7PAmlf2S4JCkZESSPN3ZxHUHIRP2F9DynmQ3QAc1IJXFGJFs4Kc8n0NUahhR0chq2NGpYfaTwqEIHhO7GSJ8+KzTA4DbgdLhJebnwn0ehshoNI8AKjypkFaubXDQfkwLeplCQbn0PqJ9nBis8qmCjUx7jx26/WXGB+MSMV3ELMltBUoXM8drwMvDN6tYqNHVoSNVhhUcVWoxifvN7IGruvV+KQyhCd/aDn6rVrmuasoKMVUitBidoJ2iE0P2NT3vhcMUtyGwFSZXc6Gbm/NLQeSZvUKg3r2+FRo3dH6wgqYKVVsnrDry0/hgVEcG9Cyvycqaauj9YoVIFa+p0yuux0uQqN0I/cHktwMkKt6uxAqbq4324Mmz20ltTKKR5+uuDmYgqHSlhc6fz8jqSl9fNxS1JSp6calsb97GZiKpPWr4JpAxd/syCz5jRIG9KHm9seFLD+qUKMxFVOrpwZJFVjczaJsebb5+qwhWSdLi0ol7t2lpPzURUTc36FI1TZff793/beXE9aipNkqfnH/KvDnzNbCai6vg0XNei82JqW5kfhzx9256lUPddXEdatAzQe9ZMRFXqNe7/NObsD4bMHVxSsHQLUQqlT0efhtVpXjITUYW6Qw5XWcTe5i4nojfxkb5vQUhMdw94OFDhUn1mIqrwv0AwPvlVw1KZTw3F8NZugFaF6pVMyiuUrmxwmvaay2zmogqNuLoRWnuyemKqmpi5Zb/dISKkpw5N9ZJEUbq5E1AnoeIjhRTMXFRBuM7Vb1xZrYaVnBSGTLOs1v55iN3eCzpc0ZjJ9jA2ieAWxhnd2A6097o+6nqBnsFMRxUCspONql/BIoNV1Nl7htmt3SAOCCfSV/AQnBCPJ92e2Pf9IB688lr9L6UymOmognDZSNsb2jUPwHjWENvhPuQNfy7CSCBQJL41vGSSEklBlHz++NlFZH2T6xtxq99AQIelqDo5DeXd1f9SBYXD0uoml2GusHqTj1Au79iB6rJv1L22yV3fCl5fHIQFAgnk9aFwIiJIRWURCTVdICBfI+uO3VqFgyP+66K/a5CFE5AepN3yxFekDAeva2UOT0LhCGHfIkFCupxIqA0N/6EK8vrlrRPQ5Wf5Ru7BUn6ET/EYtXY7uwfZwXHP+LQX7l5c45bWuSX8swhsnVtc5abmfAPj7o4+V2O7A9eLyFR6v+hoTmF6MJwFNdOXOd8yvErQsevc+ha3+4M/OgmdX0bu7KLXF0MMzkCYkir8qcMZHRx3Z/Oi4amlPJtyLlI3HBzu/lhdbFZSZUslpo+v10jD2RVNImKfqm2o5NCJIbGpbmJ6huXOB4R5vDJeaXQeSUkVBLDubCKyouwz9wyGWPjg+qIxxTXmxRRNyoXhLAgKNc1M/5gbYczOiIqVnp6hCkq9wdK02Qu1t2llNfauAdfGdkB+nfTPq8rnqYIkKXlxFWntkdfcURyIGrXHhuhVUWfvHmJ3D/jUYnEvUgUlpOTVrdAzzOob8Ert7ViqZ0SfuLLBoQTORBUkSX/bGHF4wpOqZRTHokZNYQhaI5OeV6iCkLwzjujYF2+ZupVYqb1xQ8r0OlUQwHJ7YvPLfoQ4xSGoUXtqqqiCAFaAT+z95Dv6XDTNopbZ1FKVUjSWvLEK0/O+2hYGgY52iNSeNW1UQXLQCiaOT0P9Y26kZjgEZYuawjRTlVIikWTd0e29YNcgS9mipjCdVEFJdIjRpJONbu0GuwdZS4Od9onUUqafqgfFYjJbewfB8Rlvc5dTXsvrn69F1N6mEaAqJUmSN16/uhHWtwIjk57Wbid6xg+V/1aLKdT+tUeNoFZkRoyqlNAtInT5ufitVTw8Ca1scGNfPF0D8lr45bV2eVhFlTwGRjaLrYSaqU1+nwlEdIQAwlQ9FqpFUZQJc7HRO5t4fhn5ecRv7wbWt7jlDW5+hfu66JtZoGZSm57zjUx5Ogdc1c0MwgFYAV6P0clgOaTqqSQpiUgmivKg1XA4wYeomdeQz3BcXN6P4yqytMa13GfMCnpeMkOpoipEoc9BFEBv83XRr3ICI6WKSpWQMSOZWVzjqpte/xZMqaLSIHSLq9+4ytfmn1GqqLTJ7Y31j7kz94OUKiptiieSewfBqsZMCRalikqznGy0a4ClVFGRVDQqzSz4MqyKS6mi0ix578LdQMXLKydQqqg0S5KSPw/5qpd376VUUWmWJP199DtU8/IqgZQqKs2iVFGRl0zVCaWKiqhA1cmfcG0LpYqKnJLJ+22hO52UKiqS8vpj7X2u92VKnlJGqaLSo3BEGpnyvLReEKWKSo9i8eTOXvClF6GUKio9Qmp1ZxMbO57fqIZSRaVToXBibtmfGtKuMEoVlU4hXN3cCc9u7USpotIvQZC+7QQqnwxmp1RRZaVA8H5Te8t/FuinVFFlK483hgTr8SwJShUVAQV5efvM9j5Xas4gpYqKjMRo8s4mzq9wTZ1OShUVMaEqDIUSKAwpVVSEBbYoVVTkRamiIi9KFRVp/f33/wGjjHMT7VbPqwAAAABJRU5ErkJggg==;aspect=fixed;fontStyle=1" vertex="1" parent="1">
                    <mxGeometry x="951" y="399" width="70" height="70" as="geometry"/>
                </mxCell>
                <mxCell id="82" value="" style="endArrow=classic;html=1;strokeWidth=2;" edge="1" parent="1">
                    <mxGeometry width="50" height="50" relative="1" as="geometry">
                        <mxPoint x="1231.5" y="426" as="sourcePoint"/>
                        <mxPoint x="1308" y="427" as="targetPoint"/>
                    </mxGeometry>
                </mxCell>
                <mxCell id="83" value="" style="endArrow=classic;html=1;strokeWidth=2;" edge="1" parent="1">
                    <mxGeometry width="50" height="50" relative="1" as="geometry">
                        <mxPoint x="1309" y="270" as="sourcePoint"/>
                        <mxPoint x="1365" y="349" as="targetPoint"/>
                        <Array as="points">
                            <mxPoint x="1365" y="270"/>
                        </Array>
                    </mxGeometry>
                </mxCell>
                <mxCell id="84" value="" style="endArrow=classic;html=1;strokeWidth=2;" edge="1" parent="1">
                    <mxGeometry width="50" height="50" relative="1" as="geometry">
                        <mxPoint x="1406" y="387.5" as="sourcePoint"/>
                        <mxPoint x="1455" y="387.5" as="targetPoint"/>
                    </mxGeometry>
                </mxCell>
                <mxCell id="87" value="" style="endArrow=classic;html=1;strokeWidth=2;" edge="1" parent="1">
                    <mxGeometry width="50" height="50" relative="1" as="geometry">
                        <mxPoint x="783" y="331.5" as="sourcePoint"/>
                        <mxPoint x="783" y="377.5" as="targetPoint"/>
                    </mxGeometry>
                </mxCell>
                <mxCell id="88" value="&lt;b&gt;Users&lt;/b&gt;" style="sketch=0;outlineConnect=0;fontColor=#232F3E;gradientColor=none;fillColor=#232F3D;strokeColor=none;dashed=0;verticalLabelPosition=bottom;verticalAlign=top;align=center;html=1;fontSize=12;fontStyle=0;aspect=fixed;pointerEvents=1;shape=mxgraph.aws4.users;" vertex="1" parent="1">
                    <mxGeometry x="367" y="305" width="78" height="78" as="geometry"/>
                </mxCell>
                <mxCell id="90" value="&lt;b&gt;Amazon EMR&lt;/b&gt;" style="sketch=0;points=[[0,0,0],[0.25,0,0],[0.5,0,0],[0.75,0,0],[1,0,0],[0,1,0],[0.25,1,0],[0.5,1,0],[0.75,1,0],[1,1,0],[0,0.25,0],[0,0.5,0],[0,0.75,0],[1,0.25,0],[1,0.5,0],[1,0.75,0]];outlineConnect=0;fontColor=#232F3E;gradientColor=#945DF2;gradientDirection=north;fillColor=#5A30B5;strokeColor=#ffffff;dashed=0;verticalLabelPosition=bottom;verticalAlign=top;align=center;html=1;fontSize=12;fontStyle=0;aspect=fixed;shape=mxgraph.aws4.resourceIcon;resIcon=mxgraph.aws4.emr;" vertex="1" parent="1">
                    <mxGeometry x="530" y="75" width="78" height="78" as="geometry"/>
                </mxCell>
                <mxCell id="89" value="&lt;b&gt;Amazon EKS&lt;/b&gt;" style="sketch=0;points=[[0,0,0],[0.25,0,0],[0.5,0,0],[0.75,0,0],[1,0,0],[0,1,0],[0.25,1,0],[0.5,1,0],[0.75,1,0],[1,1,0],[0,0.25,0],[0,0.5,0],[0,0.75,0],[1,0.25,0],[1,0.5,0],[1,0.75,0]];outlineConnect=0;fontColor=#232F3E;gradientColor=#F78E04;gradientDirection=north;fillColor=#D05C17;strokeColor=#ffffff;dashed=0;verticalLabelPosition=bottom;verticalAlign=top;align=center;html=1;fontSize=12;fontStyle=0;aspect=fixed;shape=mxgraph.aws4.resourceIcon;resIcon=mxgraph.aws4.eks;" vertex="1" parent="1">
                    <mxGeometry x="691" y="73" width="78" height="78" as="geometry"/>
                </mxCell>
                <mxCell id="91" value="Submit Spark Jobs&#10;on Virtual Cluster" style="shape=image;verticalLabelPosition=bottom;labelBackgroundColor=#ffffff;verticalAlign=top;aspect=fixed;imageAspect=0;image=data:image/png,iVBORw0KGgoAAAANSUhEUgAAAD4AAAA+CAIAAAD8oz8TAAAAAXNSR0IArs4c6QAAAARnQU1BAACxjwv8YQUAAAAJcEhZcwAADsMAAA7DAcdvqGQAAAASdEVYdFNvZnR3YXJlAEdyZWVuc2hvdF5VCAUAAAxwSURBVGhD7ZqHWxTnFsbvnwSxJhqjooB0gki3xRjjtaQSY4ymaWKi5poY9Vqj7NJ3F5COSJFeFJDee5UOCoh6f9/MsFlgF0HZJPd5cp7z+Kzfzsy+c75z3vOeGf71/P/W/oFuzDpahyMCq4OvVgZfrTDqIdcrKkp6nj1Tjl+omQv6xPjT338rtlsaZGOpNuW2lurP309+/OiJcs4CzVzQAXT6WLaNpcp+WZCnlc57Y4SX5PoPjiuCrS0D/u0VOzI0rpyzQDM79L2eMaX3eloahgy9qW7oyL4Ua4u/N/SDW+N7ex4pq1P2dPLZcf+7U9AnlNUFmhmhn1Kgx80BfbtjRF1V37OnL1OqfzF029dU+7xjc9JaKWvlu3mbWaHnvDBhrC1VNhYq93VhgZcf9Pc+fr6Q6P8JUY/v7TYO3cYiwPmNYLe3wjjMfnkgK421A0/nnTzmgj46PHHycKaA7hfX0zUKIEN/MvH0uH860PdsiUmJb9znHWe7BKZX8d+M280T45PKVeY0s0An5LdCq7w2akgJX1vttV+Lgq6UCb8q/1saeLn0PfdoUkUmx7bmoR8OZziuoH+pNq8NU196MDQwplzLtC0+dFL26tl7rqtD6DjEFTRT7VP/QXILlSBH79iRYUGOoyMTob+Xe1hpOMxBSp6WhsFnc4qERYZO/E4cyrBbFggCj/VhW+11xN5zQ7jjyiCwssgtsSK7j432l+O5T54o3NJUP3D9XBHZb22hsn1N/W/P2OSYhqK8Tr1XlT0cH/sjlxYNOhlcnN+53yeOX8U/2JZQUtjV2Tbc3DDYVDcQcq1UzodPdyXVVPSyiLc2DY09VqA87H70wbZ4ihW6BLrkAZuWqO2XBdovk/8N9LAKT09sko/HjEOnR5CC9dX9JYXd2amtqfGNBCAtsakgs728uAdAgoYNNnNi4mliVJ3fJp2NZQAhJ/DtzUPKd5KRFSwSeOc3QmI1NbMTob66b8v6MHlnQG/gBEJ8YJ07UV8qUU6YAR3OYscjg6u++zT9gG+8+7rwTUsIg4ii3h2WB213jPzsvdvnvs/Lz2wfHhrHb14o3gzHWajefjPk6i/3B/uNFBmB2OEcCYJtDhG1FX3K6pQJ6OtgSfXPX+dmJDdlpjQbui6w0n2tBugqo9ApLxDQmYHLD0gudClF47IqGHd6PWjTUn3BCXd6PfiTdxIRrhxDUW61i0iIrDNMR0MjLgkRtc6vB9taqr75KP3R6DStC3QaExfXBVaRe8rqlDVUD/jYRBqP+uDA2MkvMokokXNYEbTLNerw3uSgK6WZyS2FWe3FBZ0kblFeR15G2+3ohl9P5JGXXtYaNkG+BzaUfn4vp2NyquaMGmR/6mgW0LnViKBKGeKktNVkEdGRoFcbgV4z4GsKeuadZmofENAtad3VMTI2Nkmc5G8NjTSFE8hdNv3yzxIJWgT42Oiogbm5TDZohL7DKd7W2uzUlrTERkK23SlKUBBkaqmOUBuHLkVdZSRhboXUypkA9Jjw6pbGQRqeKSRAJL9L73f/9kO+65uCv7c5RLY0TqtLU0ZBh98sJ378FucKxBKlyLsnoj4XdGNRl6ArKQ6L7XSOPPHZ3YunCviZ1ISm/MyOezmdOWltpHLAxZKz3+Ueei9ZFLFIffSTBL1hUL6UUQMxo+rt6PozX2XvcBLFylkSf6v87CJopTfOF7msnithXgCdAmXrZQLGbZegioKgM5dVoa6rw/jXaWWw3VJBveLb19SwiiAWQRrGoY+PT4L4TmzDj0cyd7vdoqzlc+Fvl1UiP+2WqWM0NQgHVLvMMBFGy3QKusmEcVsTnnWnlVw/dTR7j0cMbEMjJJvZVocVgTCM21uhPrbad1wiP9yRcPNCSUF2O+2QK86ADslQeWzXT19mgVhGCQGAmGt+83F6YmQddQmTsn5oT3J/32M9w1w4WVhS0PXgXrfihcKTouq3rBfkaCrqRFFTXzVAihMGRDZoSOis1JaUuIbkmHpKKj+zraa8l0DC3HIDR67ooRNjigQliNzd9fYtUffEGMpaHrjTOerbT9LjtLV0VniGn0AeXvipgHPtlqohZZq8aEkQ7kohg2e46+pQtktAv2wiYWTo8so87erZ+1zRc4Mm8MoDauAdlyg4DvqTY7zDKerEobvRYdXN9YMS4mmZ0N05ippn2qDDx0fUfrQ9EXyQj8goOv/yme5lrSV8ysmLBZ2fJKnkPKYtsAmIdbpyQ20/knAO0izIandfK9rwxzsTr/96X5SZpIRh/RhNNUmFUww4H3LTWw0b2atDFwkDYqDTTSFpYlxX1f9odC7EeiPrUIvIHtLGbU0o19myPjwjuXl2pc42I7kur8zTZOjMB6HXy2AJKcbKV/M0xj//d28DGrrkBmhzY4/n9TzslaH/8keZKksLN62qgouQ5RBaWVG3svoi+wM6Suulow4JwLgVJT1DA+MLfajS0zn64fYEok6HIurnTxbMUGambHGg86swALLk2MFUnbqSe0ApzCdfochLZwrpylAK5Eih0+PgYqPyaYYtTq7TWemUfCB41JyvbcRXH6YhIqpKHyLUTOGgKmga+sYEw9AB+IyO4lwISvLKKa+CGeVBVrbFge61UasJqLh0unCvRwxQxD1YiA7ia6s79kFq2I1yhrrZ+9DZNrLPO44j2S5aHsOhlDaC1wn/bIdG0RTKyYsBXfC6XKYob9DkpLWQr3s9YrkHIeile/Cz032x7w76hGY8PCjqAbEgiwh2KfhaaXV5rzzgOa0MgiVRHMLlD2tQUFzKxID3ilHfZj+NYWDrrvYR5pKz3+bSX95+U7RxkUtLySXt53uSo0OrmdkY/lk8sj9laGBMr2EunblfWfqwuszQexmOPay0JvX6K5SpUI5M+MqSgXEPEEje3bb/fJuzzycWHSYPVtSlNFuI4o4KqYJSaisV6HOOGqZF76tAn5vXyaWHXaNZKa0Mh+97xCByyGlZr1Mnxw6mXTl7b+4Bz0zQF9CSGF41AcqU5LFePFoC/dSUJAY8nXqBej06tJatdF0VlpHcwmgnL85tUBvDOAOOiNwGzf3czvkQOfJml+stUPpu0jGG56SLfdi9OUbOn5dJmOL8TpQnJ3ttDD/3fV5RXieTNSQAJcMGoJRcPKRl6yHXxtp+JhL/d5P4STlme7ZE56a3ySLelMGP4tm0NEMiBmW1w2W7O0aZ/aS53uRsavKJAChDrpfJ3QGn9hkOENAnD2eoLpZQSTHhNSgNOt+X+1MgY29rDXTBkYTce6NGxMxCZG1kUJX+WdwMIwqISiQxp3x/KOPxdI2lPP16UcIYgY7Rk3PSWo8eSJHFJ1CU57RKIpKdIkGldeEk2E6XqP+eLqyv7g+5VoZYZZEh8PyP+bNfY2Aw91b7CK7AONJYO7Oi9NBPH81JjW9IS2g0dJqr+9pwk9BlY0iDR+m6p49l+b+bvMc9zsdWh65wWxPmYaXZ7hh1wDeR27v8c+Hd283dHSOy2CJP7iY17RTP5QIgPpRMU/00cFQF0gDcZAW5oawaGPcvtSQpWMbcmisDffaAZ9TYuIG+McZNSJdO3lDT39k+wtgq5+gMY7HyQc+nu5L4AVKCTkRLIroEGyVz43yxeLRmqaI8kLUs4lwWfS+f3vfwkf/uJFqpRDjyg/kANBnbqHffTdqslBb5eGwu6C9hCIEzX2c7rBBlwPzhaSUeKOB0e1mcOK4IdF0dLC0yPody8MQUoREj5gzQk3jc/8GtcelJTSWFXXqvregzfFezyNAxunrAxeLNb4XCPDLcqTqRnbvCpbca8ov2YfG2mrN+P1fkvk6wHEV/5uuc9tZho9urt8WHjo2NTSZG1SEbwbfNISL8ZmWspk7vcZq6mPBadKK1pWqv9C4Jqv3m4zRZ8dIiKMr5vH03C3SMJP7xiyygHPSLRwJA3oZGTz3un862IM3jdbW73aJJcfyAXzwVok+huc1c0Knmqb8RiDP+3vSzdPaE3uS6WnCxSJKvstuah7gx5aAX2Z8A3dQrX/HeFPS4l7WWJGGuVb6en5kR+oveVgvoNIGPdiSif+YpnAztr4w6DLPDObKpTjzlfAkzP3Q/09D/tn/KIycMHFKY3VFT3mfoVaW9n7+fDHSZHJVzFmhmjbr4oxL6qMd6recG3TS30iEhlZb0d4NO2akuPnBcGUwhGvEl4l+7Zeoj+++YEskvNHNBxxioY7U1YTfKJC+f9aFMq64Qfz31UjWKmRG6ue0f6H++PX/+PzvS3i9kDRbnAAAAAElFTkSuQmCC;fontStyle=1" vertex="1" parent="1">
                    <mxGeometry x="530" y="294" width="62" height="62" as="geometry"/>
                </mxCell>
                <mxCell id="96" value="" style="endArrow=none;html=1;strokeWidth=2;" edge="1" parent="1">
                    <mxGeometry width="50" height="50" relative="1" as="geometry">
                        <mxPoint x="873" y="438.5" as="sourcePoint"/>
                        <mxPoint x="941" y="439" as="targetPoint"/>
                    </mxGeometry>
                </mxCell>
            </root>
        </mxGraphModel>
    </diagram>
</mxfile>